<mxfile host="drawio-plugin" modified="2024-01-28T08:44:52.267Z" agent="5.0 (X11; Linux x86_64) AppleWebKit/537.36 (KHTML, like Gecko) Chrome/111.0.0.0 Safari/537.36" etag="O20m9G5ZycSKV06ypHiC" version="20.5.3" type="embed"><diagram id="23iRSUPoRavnBvh4doch" name="Page-1"><mxGraphModel dx="1632" dy="656" grid="1" gridSize="10" guides="1" tooltips="1" connect="1" arrows="1" fold="1" page="1" pageScale="1" pageWidth="827" pageHeight="1169" math="0" shadow="0"><root><mxCell id="0"/><mxCell id="1" parent="0"/><mxCell id="2" value="" style="shape=folder;fontStyle=1;spacingTop=10;tabWidth=40;tabHeight=14;tabPosition=left;html=1;" vertex="1" parent="1"><mxGeometry x="130" y="70" width="510" height="360" as="geometry"/></mxCell><mxCell id="37" style="edgeStyle=orthogonalEdgeStyle;rounded=0;orthogonalLoop=1;jettySize=auto;html=1;endArrow=none;endFill=0;" edge="1" parent="1" source="3" target="34"><mxGeometry relative="1" as="geometry"/></mxCell><mxCell id="3" value="CameraInterface" style="swimlane;fontStyle=2;childLayout=stackLayout;horizontal=1;startSize=26;fillColor=none;horizontalStack=0;resizeParent=1;resizeParentMax=0;resizeLast=0;collapsible=1;marginBottom=0;" vertex="1" parent="1"><mxGeometry x="170" y="150" width="140" height="52" as="geometry"/></mxCell><mxCell id="12" style="edgeStyle=orthogonalEdgeStyle;rounded=0;orthogonalLoop=1;jettySize=auto;html=1;endArrow=block;endFill=0;dashed=1;" edge="1" parent="1" source="7" target="3"><mxGeometry relative="1" as="geometry"/></mxCell><mxCell id="13" value="implements" style="edgeLabel;html=1;align=center;verticalAlign=middle;resizable=0;points=[];" vertex="1" connectable="0" parent="12"><mxGeometry x="-0.2308" relative="1" as="geometry"><mxPoint as="offset"/></mxGeometry></mxCell><mxCell id="20" style="edgeStyle=orthogonalEdgeStyle;rounded=0;orthogonalLoop=1;jettySize=auto;html=1;endArrow=classicThin;endFill=1;" edge="1" parent="1" source="7" target="16"><mxGeometry relative="1" as="geometry"><Array as="points"><mxPoint x="510" y="270"/><mxPoint x="510" y="270"/></Array></mxGeometry></mxCell><mxCell id="21" value="uses" style="edgeLabel;html=1;align=center;verticalAlign=middle;resizable=0;points=[];" vertex="1" connectable="0" parent="20"><mxGeometry x="0.2041" relative="1" as="geometry"><mxPoint as="offset"/></mxGeometry></mxCell><mxCell id="7" value="Camera" style="swimlane;fontStyle=0;childLayout=stackLayout;horizontal=1;startSize=26;fillColor=none;horizontalStack=0;resizeParent=1;resizeParentMax=0;resizeLast=0;collapsible=1;marginBottom=0;" vertex="1" parent="1"><mxGeometry x="440" y="150" width="140" height="52" as="geometry"/></mxCell><mxCell id="16" value="CameraConfig" style="swimlane;fontStyle=0;childLayout=stackLayout;horizontal=1;startSize=26;fillColor=none;horizontalStack=0;resizeParent=1;resizeParentMax=0;resizeLast=0;collapsible=1;marginBottom=0;" vertex="1" parent="1"><mxGeometry x="455" y="290" width="110" height="104" as="geometry"/></mxCell><mxCell id="17" value="+ FPS" style="text;strokeColor=none;fillColor=none;align=left;verticalAlign=top;spacingLeft=4;spacingRight=4;overflow=hidden;rotatable=0;points=[[0,0.5],[1,0.5]];portConstraint=eastwest;" vertex="1" parent="16"><mxGeometry y="26" width="110" height="26" as="geometry"/></mxCell><mxCell id="18" value="+ Resolution" style="text;strokeColor=none;fillColor=none;align=left;verticalAlign=top;spacingLeft=4;spacingRight=4;overflow=hidden;rotatable=0;points=[[0,0.5],[1,0.5]];portConstraint=eastwest;" vertex="1" parent="16"><mxGeometry y="52" width="110" height="26" as="geometry"/></mxCell><mxCell id="19" value="+ Port" style="text;strokeColor=none;fillColor=none;align=left;verticalAlign=top;spacingLeft=4;spacingRight=4;overflow=hidden;rotatable=0;points=[[0,0.5],[1,0.5]];portConstraint=eastwest;" vertex="1" parent="16"><mxGeometry y="78" width="110" height="26" as="geometry"/></mxCell><mxCell id="26" style="edgeStyle=orthogonalEdgeStyle;rounded=0;orthogonalLoop=1;jettySize=auto;html=1;entryX=0.25;entryY=1;entryDx=0;entryDy=0;endArrow=classicThin;endFill=1;exitX=1;exitY=0.5;exitDx=0;exitDy=0;" edge="1" parent="1" source="22" target="7"><mxGeometry relative="1" as="geometry"><Array as="points"><mxPoint x="330" y="340"/><mxPoint x="375" y="340"/><mxPoint x="375" y="250"/><mxPoint x="475" y="250"/></Array></mxGeometry></mxCell><mxCell id="27" value="produces" style="edgeLabel;html=1;align=center;verticalAlign=middle;resizable=0;points=[];" vertex="1" connectable="0" parent="26"><mxGeometry x="-0.1039" y="2" relative="1" as="geometry"><mxPoint y="21" as="offset"/></mxGeometry></mxCell><mxCell id="22" value="CameraFactory" style="swimlane;fontStyle=0;childLayout=stackLayout;horizontal=1;startSize=26;fillColor=none;horizontalStack=0;resizeParent=1;resizeParentMax=0;resizeLast=0;collapsible=1;marginBottom=0;" vertex="1" parent="1"><mxGeometry x="190" y="316" width="140" height="52" as="geometry"/></mxCell><mxCell id="34" value="" style="html=1;rounded=0;rotation=-90;" vertex="1" parent="1"><mxGeometry x="245" y="70" width="30" height="30" as="geometry"/></mxCell><mxCell id="35" value="" style="endArrow=none;html=1;rounded=0;align=center;verticalAlign=top;endFill=0;labelBackgroundColor=none;endSize=2;" edge="1" source="34" target="36" parent="1"><mxGeometry relative="1" as="geometry"/></mxCell><mxCell id="36" value="" style="ellipse;html=1;fontSize=11;align=center;fillColor=none;points=[];aspect=fixed;resizable=0;verticalAlign=bottom;labelPosition=center;verticalLabelPosition=top;flipH=1;" vertex="1" parent="1"><mxGeometry x="256" y="30" width="8" height="8" as="geometry"/></mxCell></root></mxGraphModel></diagram></mxfile>